<svg width="128" height="129" viewBox="0 0 128 129" fill="none" xmlns="http://www.w3.org/2000/svg">
<g filter="url(#filter0_d_23_690)">
<path fill-rule="evenodd" clip-rule="evenodd" d="M91.491 76.5103C89.9979 75.7601 82.6582 72.1366 81.2897 71.6355C79.9217 71.1358 78.9264 70.8863 77.9306 72.3857C76.9354 73.8851 74.0742 77.2599 73.2035 78.2602C72.3329 79.2595 71.4617 79.385 69.9691 78.6348C68.4759 77.8851 63.6654 76.303 57.9636 71.1989C53.5253 67.226 50.529 62.3205 49.6583 60.8206C48.7873 59.3207 49.5651 58.51 50.3126 57.7628C50.9845 57.0918 51.806 56.0129 52.5522 55.1381C53.2987 54.2634 53.5475 53.6381 54.0451 52.639C54.5428 51.6387 54.2941 50.7641 53.9205 50.0144C53.5475 49.2645 50.5617 41.89 49.3176 38.89C48.1057 35.969 46.8749 36.3647 45.9586 36.3183C45.0887 36.275 44.0924 36.2657 43.0974 36.2657C42.1021 36.2657 40.4846 36.6407 39.1159 38.1401C37.7478 39.6399 33.8909 43.2648 33.8909 50.6384C33.8909 58.0129 39.2403 65.1368 39.9869 66.1365C40.7336 67.1368 50.5139 82.2688 65.4906 88.7585C69.0522 90.3022 71.833 91.2239 74.0013 91.9141C77.5774 93.0545 80.832 92.8937 83.4048 92.5075C86.273 92.0779 92.2376 88.8835 93.4815 85.3846C94.7255 81.8842 94.7255 78.8849 94.3522 78.2602C93.9789 77.635 92.9836 77.26 91.491 76.5103ZM64.2507 113.834H64.2311C55.3195 113.831 46.5795 111.428 38.9547 106.888L37.1412 105.807L18.3457 110.755L23.3624 92.3653L22.1819 90.4797C17.2107 82.5451 14.585 73.3748 14.5889 63.958C14.5999 36.4813 36.878 14.1267 64.2708 14.1267C77.5352 14.1314 90.0039 19.3219 99.3807 28.742C108.757 38.1614 113.917 50.6824 113.912 63.9984C113.901 91.4775 91.6231 113.834 64.2507 113.834ZM106.516 21.584C95.2359 10.2507 80.2342 4.00647 64.2507 4C31.3175 4 4.51396 30.8958 4.50064 63.9545C4.49634 74.5223 7.24751 84.8366 12.4761 93.9297L4 125L35.6737 116.662C44.401 121.439 54.2267 123.957 64.2266 123.96H64.2512C97.1807 123.96 123.986 97.0616 124 64.0024C124.006 47.9815 117.797 32.9171 106.516 21.584Z" fill="#00FF09"/>
</g>
<defs>
<filter id="filter0_d_23_690" x="0" y="0" width="128" height="129" filterUnits="userSpaceOnUse" color-interpolation-filters="sRGB">
<feFlood flood-opacity="0" result="BackgroundImageFix"/>
<feColorMatrix in="SourceAlpha" type="matrix" values="0 0 0 0 0 0 0 0 0 0 0 0 0 0 0 0 0 0 127 0" result="hardAlpha"/>
<feOffset/>
<feGaussianBlur stdDeviation="2"/>
<feComposite in2="hardAlpha" operator="out"/>
<feColorMatrix type="matrix" values="0 0 0 0 0 0 0 0 0 0 0 0 0 0 0 0 0 0 0.25 0"/>
<feBlend mode="normal" in2="BackgroundImageFix" result="effect1_dropShadow_23_690"/>
<feBlend mode="normal" in="SourceGraphic" in2="effect1_dropShadow_23_690" result="shape"/>
</filter>
</defs>
</svg>
