<svg width="218" height="218" viewBox="0 0 218 218" fill="none" xmlns="http://www.w3.org/2000/svg">
<path d="M27.9571 63.1263C32.8838 66.8758 37.6607 70.565 42.4862 74.1894C47.3599 77.8501 52.2853 81.4419 57.1815 85.0727C61.5147 88.286 67.0531 86.7607 69.8469 82.5573C80.3216 66.7979 90.9399 51.1328 101.292 35.2934C104.88 29.8027 111.293 29.39 115.107 32.4909C116.726 33.8072 117.855 35.7793 119.046 37.5608C128.959 52.391 138.877 67.2191 148.701 82.1087C152.121 87.2925 157.483 88.3731 162.629 84.5133C174.831 75.3608 186.987 66.1466 199.156 56.9509C201.357 55.288 203.578 53.8039 206.567 54.7569C210.763 56.0951 212.504 59.8483 211.493 64.6544C210.624 68.7845 210.133 72.9944 209.486 77.1707C208.701 82.2393 207.926 87.3096 207.148 92.3795C206.506 96.5597 205.872 100.741 205.225 104.92C204.44 109.988 203.64 115.053 202.855 120.121C202.219 124.232 201.597 128.345 200.969 132.458C200.415 136.084 199.861 139.711 199.298 143.401C139.368 143.401 79.5773 143.401 19.5858 143.401C19.0174 139.854 18.4359 136.316 17.8863 132.773C17.1 127.703 16.3445 122.629 15.5617 117.558C14.927 113.448 14.2718 109.341 13.6251 105.233C12.8063 100.031 11.9646 94.8318 11.1747 89.6253C10.5397 85.4395 9.9869 81.2413 9.36128 77.054C8.74689 72.9419 7.98038 68.8494 7.4861 64.7238C7.18572 62.2165 6.53636 59.6581 8.40235 57.2666C10.3867 54.7236 14.7065 53.5095 17.4129 55.4957C20.8685 58.0319 24.3553 60.5256 27.9571 63.1263Z" fill="#FFB743"/>
<path d="M20.9326 183.793C20.4116 182.302 19.6655 180.941 19.6421 179.567C19.5215 172.477 19.5861 165.383 19.5861 158.128C79.4415 158.128 139.249 158.128 199.266 158.128C199.266 164.987 199.231 171.845 199.282 178.702C199.304 181.595 198.455 184.18 196.156 185.861C194.616 186.986 192.587 188.096 190.775 188.1C136.514 188.217 82.2527 188.205 27.9915 188.169C24.9217 188.167 22.5946 186.583 20.9326 183.793Z" fill="#FFB743"/>
</svg>
