<svg width="43" height="56" viewBox="0 0 43 56" fill="none" xmlns="http://www.w3.org/2000/svg">
<path fill-rule="evenodd" clip-rule="evenodd" d="M21.4062 0C32.6374 0.121492 42.4326 3.92013 42.9589 8.86766C42.1313 11.1647 41.7542 18.6652 41.6341 21.3989C41.6286 21.5268 41.3274 22.7399 41.2803 24.1901C41.2712 24.4731 41.148 24.6676 40.848 27.9116C40.4158 28.2055 40.5961 35.4841 40.3755 36.8907C40.0504 37.2155 40.0504 36.8907 40.0504 40.2617C39.981 40.7551 39.9944 41.517 39.7094 43.6491C39.5835 44.5925 39.3866 46.8887 39.3626 47.1708C39.0381 50.9585 39.2507 53.5111 35.4939 55.4011C34.5349 55.8836 34.4889 55.8192 19.4282 55.8188C8.68689 55.8185 7.92286 56.0454 6.62732 55.3581C3.04711 53.4588 4.18109 50.1456 3.87119 48.2456C3.83868 48.0468 3.5405 44.8845 3.51296 44.5922C0.221552 9.69887 -0.265262 9.57417 0.568062 7.54246C1.537 5.17897 7.03811 0.48052 21.4062 0Z" fill="black"/>
<path fill-rule="evenodd" clip-rule="evenodd" d="M2.81336 32.3276C2.71378 31.3011 1.98337 23.7722 1.67295 19.4858C0.873264 8.44083 0.178158 8.08115 1.46578 6.81486C4.4144 3.91499 10.5937 2.46723 11.4397 2.2691C18.2369 0.676451 23.8664 1.23353 24.363 1.25418C31.6008 1.55264 41.8239 4.82342 41.9381 8.62592C41.9694 9.668 38.6118 46.3297 38.3117 49.607C38.1252 51.6433 38.3917 55.1151 34.2044 55.1129C28.0523 55.1097 28.051 55.0865 28.0304 55.0771C27.6876 54.9253 27.9231 49.411 27.8585 46.3949C27.8495 45.9703 27.5861 46.1265 15.2237 46.0942C14.6854 46.0928 14.8047 46.4173 14.805 50.368C14.805 54.7855 14.9183 55.1086 14.3804 55.1115C7.3527 55.147 5.87123 55.314 4.8354 53.111C4.42506 52.2381 3.33761 37.4765 2.81336 32.3276ZM15.7149 55.9841C7.30799 55.9885 6.22187 56.2692 4.63216 54.2781C3.65328 53.052 3.8741 52.3008 3.30889 46.6604C2.34966 37.0915 1.65789 28.2285 1.53266 26.6239C1.12865 21.4468 -0.235247 9.15916 0.0352016 7.83853C1.30717 1.6266 25.1719 -3.69501 39.0714 4.10956C44.1353 6.95293 42.8247 8.37461 42.3644 14.542C42.3447 14.8046 39.2409 49.164 39.1573 50.4749C39.109 51.2319 39.2819 55.8316 34.555 55.9838C34.4844 55.9859 16.6695 55.9838 15.7149 55.9841Z" fill="#F6FBFA"/>
<path fill-rule="evenodd" clip-rule="evenodd" d="M19.7927 15.9219C21.5186 15.8139 25.6583 15.3757 30.5889 18.7221C34.9055 21.6517 36.8839 27.1827 36.3653 27.3279C36.3436 27.3341 6.47442 27.3341 6.45211 27.3287C5.88623 27.1838 7.81434 22.8003 9.87434 20.7342C14.2115 16.3851 18.3978 16.1149 19.7927 15.9219Z" fill="#FAFCFC"/>
<path fill-rule="evenodd" clip-rule="evenodd" d="M10.6538 35.4447C36.5739 35.4447 36.5879 35.4378 36.6598 35.5012C36.8014 35.6261 36.4846 39.7999 34.1402 40.2697C33.9633 40.3052 33.975 40.353 11.7786 40.3461C7.95132 40.345 7.00276 40.5511 6.11181 36.1155C6.01389 35.6279 5.97825 35.4436 6.43455 35.4418C7.84108 35.4429 9.24728 35.4436 10.6538 35.4447Z" fill="#FCFDFD"/>
<path fill-rule="evenodd" clip-rule="evenodd" d="M38.5924 31.213C38.5664 32.1953 38.8262 32.33 38.1738 33.0077C37.7075 33.492 37.6149 33.4257 27.3841 33.4257C5.33732 33.4257 5.31767 33.4685 5.04755 33.312C3.70564 32.5361 3.75893 29.3719 5.734 29.2889C5.83991 29.2846 33.8013 29.2889 36.242 29.2893C38.1062 29.2896 38.4779 29.4588 38.5924 31.213Z" fill="#FAFBFB"/>
<path fill-rule="evenodd" clip-rule="evenodd" d="M22.3233 14.6684C20.7575 14.6333 20.7655 14.5927 19.2268 14.8136C18.7378 14.8839 18.0794 14.0244 16.9876 13.8853C14.4257 13.5589 14.3733 15.7275 14.1652 15.725C13.3575 15.7155 12.6807 11.7189 15.5911 10.3063C17.8492 9.21021 19.0832 10.4464 19.5212 10.6898C20.594 11.286 18.1057 8.89835 19.8343 5.39721C20.1893 4.67785 21.3601 2.97799 21.3611 2.97763C21.5699 2.85158 23.056 5.34867 23.2499 5.85468C24.5402 9.21782 22.0478 11.4494 23.6159 10.4827C26.4363 8.74405 29.217 11.0195 29.4275 13.6328C29.5191 14.7698 28.7421 16.3356 28.503 15.3135C28.2808 14.3645 26.7247 13.0602 24.4572 14.4431C23.4843 15.0364 23.4304 14.7379 22.3233 14.6684Z" fill="#F8FBFB"/>
<path fill-rule="evenodd" clip-rule="evenodd" d="M19.7921 44.5729C14.4568 44.5758 14.3642 44.6547 13.7554 44.1951C12.7152 43.4095 12.9097 41.9429 13.0776 41.8302C13.3134 41.6719 28.0508 41.7734 29.3528 41.782C30.3733 41.7889 29.7325 43.5297 29.2925 43.9901C28.6357 44.6776 28.5121 44.5696 19.7921 44.5729Z" fill="#F9FBFB"/>
<path fill-rule="evenodd" clip-rule="evenodd" d="M18.9532 17.343C19.9924 17.2068 20.6308 17.1499 20.7767 17.1369C22.5526 16.9789 20.5406 17.6621 19.8185 18.1138C14.0965 21.6935 13.818 26.006 13.0443 26.0292C12.7123 26.039 8.26254 26.0288 8.2612 26.0288C7.46152 25.9879 9.66407 22.8475 10.1007 22.3542C13.1569 18.9001 15.7988 17.9772 18.9532 17.343Z" fill="#16795D"/>
<path fill-rule="evenodd" clip-rule="evenodd" d="M18.4114 52.185C18.2252 52.4106 18.2488 52.4309 16.1135 55.0341C15.8035 55.4123 15.8298 54.6498 15.8311 54.6078C15.9064 52.4208 15.6759 47.2516 15.9933 47.1068C16.1332 47.043 22.3205 47.0676 22.3428 47.0868C22.603 47.3089 22.3562 47.3958 19.7296 50.5677C19.6234 50.6963 18.8297 51.6543 18.4114 52.185Z" fill="#14795D"/>
<path fill-rule="evenodd" clip-rule="evenodd" d="M10.5125 32.3732C5.53719 32.3696 5.44693 32.4276 5.29605 32.14C5.07822 31.7238 5.05791 30.5354 5.58548 30.4148C5.73203 30.3814 13.1527 30.3977 13.1933 30.4035C13.3202 30.4216 13.5417 30.4528 13.4222 32.1273C13.3985 32.4598 12.5389 32.3707 10.5125 32.3732Z" fill="#18785C"/>
<path fill-rule="evenodd" clip-rule="evenodd" d="M14.4771 37.476C14.8504 38.8259 14.9387 38.9588 14.7245 38.986C14.6599 38.9943 9.3026 38.9936 9.10775 38.9849C7.77683 38.9252 7.27756 36.7696 7.84444 36.7548C8.34837 36.7417 13.8136 36.599 14.1463 36.7812C14.3016 36.866 14.4598 37.4162 14.4771 37.476Z" fill="#1A7A5F"/>
<path fill-rule="evenodd" clip-rule="evenodd" d="M18.2393 11.4158C17.9032 11.4861 15.4198 12.0066 14.4899 13.6583C14.1992 14.1748 14.2271 14.3595 14.0363 14.2259C13.7602 14.0328 14.2431 10.2865 17.686 10.5364C18.0821 10.565 19.4796 11.1626 19.4899 11.3387C19.5102 11.6821 19.2997 11.3394 18.2393 11.4158Z" fill="#1D745B"/>
<path fill-rule="evenodd" clip-rule="evenodd" d="M18.6677 43.7344C15.6158 43.7311 13.8239 43.9492 13.7796 42.8383C13.7716 42.6344 13.8975 42.6496 18.3862 42.6637C18.8905 42.6652 19.1276 42.4518 19.4231 43.4356C19.5949 44.0079 19.2096 43.7185 18.6677 43.7344Z" fill="#18765F"/>
<path fill-rule="evenodd" clip-rule="evenodd" d="M28.7904 23.4387C28.8907 23.4416 29.6364 23.4619 30.0004 23.7962C31.3157 25.0035 27.9631 25.98 27.3632 24.65C26.875 23.5673 28.6455 23.4485 28.7901 23.4387H28.7904Z" fill="#19745B"/>
<path fill-rule="evenodd" clip-rule="evenodd" d="M24.0132 20.8011C23.6502 20.6841 23.6276 20.741 23.3448 20.465C21.9566 19.1103 26.0063 18.324 26.0723 19.9007C26.1215 21.0761 24.1894 20.824 24.0132 20.8011Z" fill="#17775B"/>
<path fill-rule="evenodd" clip-rule="evenodd" d="M21.0572 23.4401C23.0006 23.6744 22.4557 25.17 21.2004 25.2736C19.1188 25.4449 18.9922 23.7143 20.3644 23.4687C20.4191 23.4589 20.4154 23.4665 21.0572 23.4401Z" fill="#18755B"/>
<path fill-rule="evenodd" clip-rule="evenodd" d="M20.0737 6.29013C20.157 6.09635 21.0579 4.00566 21.4955 4.10998C22.227 4.2842 20.7845 7.2768 20.6639 7.52745C20.0267 8.84952 20.3195 10.775 19.9258 9.35227C19.5451 7.97659 20.0008 6.52231 20.0737 6.29013Z" fill="#1C755B"/>
<path fill-rule="evenodd" clip-rule="evenodd" d="M26.2547 10.5951C27.7931 11.1217 27.7495 11.3712 27.6486 11.4574C27.2362 11.8113 27.0993 10.7236 23.5885 11.468C23.423 11.5031 23.1885 11.309 23.6111 11.0656C24.8165 10.3716 26.0429 10.5621 26.2547 10.5951Z" fill="#27735C"/>
</svg>
