<svg width="814" height="839" viewBox="0 0 814 839" fill="none" xmlns="http://www.w3.org/2000/svg">
<path d="M494.035 170.248C541.949 194.565 564.225 233.977 564.202 272.053C564.179 310.117 541.867 346.683 500.965 365.263L500.901 365.292L500.834 365.312C500.833 365.312 500.83 365.312 500.829 365.312C500.826 365.313 500.821 365.315 500.816 365.317C500.804 365.32 500.785 365.326 500.761 365.333C500.714 365.347 500.645 365.368 500.557 365.393C500.381 365.445 500.128 365.519 499.824 365.609C499.214 365.788 498.396 366.029 497.56 366.275C496.281 366.651 494.96 367.038 494.285 367.236L494.275 367.256L493.841 367.371C452.484 378.327 409.944 366.884 379.248 342.274C348.547 317.66 329.626 279.813 335.641 237.94C340.771 202.241 362.24 176.079 391.527 163.478C420.801 150.883 457.811 151.863 494.035 170.248ZM495.121 196.247C491.467 191.18 486.316 186.489 480.095 184.065C473.908 181.653 466.601 181.456 458.511 185.452C450.387 189.465 441.417 197.736 432.04 212.374C423.913 225.059 420.061 231.428 416.749 238.057C413.429 244.704 410.652 251.606 404.677 265.402L403.862 267.403C395.64 287.93 393.51 303.581 395.205 315.047C396.948 326.843 402.735 334.225 410.184 338.047C417.672 341.888 426.968 342.197 435.785 339.566C444.597 336.936 452.841 331.393 458.206 323.663C461.871 318.385 480.016 292.25 494.329 252.622L495.008 250.726C496.091 247.66 502.158 230.518 501.056 210.294C500.858 206.674 498.79 201.335 495.121 196.247Z" stroke="white" stroke-opacity="0.58" stroke-width="2"/>
<path d="M274.255 59.4899C282.565 63.5023 289.866 67.247 295.16 70.0466C297.807 71.4463 299.954 72.611 301.476 73.4548C302.236 73.8764 302.843 74.2197 303.28 74.4731C303.497 74.5994 303.677 74.7053 303.814 74.7892C303.927 74.8584 304.07 74.948 304.166 75.027L304.165 75.0274C307.617 77.8377 318.273 85.9919 327.098 97.7726C335.921 109.551 343.026 125.103 339.14 142.678C336.071 156.563 329.566 165.082 321.217 169.888C312.906 174.671 302.907 175.694 292.971 174.881C283.027 174.067 273.045 171.406 264.693 168.716C260.514 167.37 256.733 166.013 253.564 164.873C251.027 163.961 248.908 163.199 247.28 162.683C247.245 162.934 247.21 163.16 247.177 163.362C247.089 163.895 247.051 164.155 247.067 164.359C247.077 164.487 247.106 164.589 247.25 164.751C247.431 164.954 247.777 165.228 248.452 165.622L248.452 165.622C264.619 175.058 271.649 184.572 274.341 194.63C277.002 204.573 275.368 214.958 274.569 225.804C273.872 235.281 277.517 240.505 281.573 241.613C285.585 242.71 290.977 240.019 294.321 231.578C294.765 230.456 295.507 229.635 296.533 229.308C297.535 228.989 298.596 229.209 299.56 229.705C301.47 230.69 303.391 232.944 304.798 235.971C307.643 242.091 308.6 251.789 302.921 262.494C297.476 272.759 289.893 278.886 281.335 281.958C272.801 285.022 263.368 285.023 254.223 283.178C235.978 279.498 218.567 268.398 211.171 258.894C200.944 245.749 197.457 233.844 197.323 222.907C197.189 212.014 200.386 202.153 203.364 193.152C206.368 184.073 209.102 175.975 208.365 168.312C207.641 160.777 203.526 153.505 192.345 146.213C191.241 145.493 190.141 145.332 189.005 145.602C187.83 145.881 186.554 146.638 185.201 147.874C182.491 150.35 179.726 154.517 177.121 159.529C171.924 169.527 167.549 182.524 165.587 190.955C163.475 200.038 166.308 205.73 167.96 210.946C168.784 213.545 169.337 216.118 168.586 218.845C167.882 221.401 166.08 223.932 162.68 226.721L161.978 227.283C159.421 229.278 157.195 230.009 154.907 229.397C152.754 228.821 150.761 227.091 148.52 224.877C143.957 220.371 137.745 213.184 125.891 205.791C105.683 193.189 91.7693 189.488 82.8397 188.017C80.5996 187.648 78.6654 187.418 77.0034 187.223C75.3581 187.03 73.9361 186.866 72.7826 186.63C71.6397 186.396 70.6151 186.064 69.8431 185.448C69.0179 184.788 68.5841 183.889 68.4581 182.764C68.1713 180.205 67.9914 178.183 68.0339 176.533C68.0769 174.868 68.3463 173.506 69.0122 172.301C69.6763 171.099 70.6817 170.15 72.0188 169.217C73.0136 168.523 74.2348 167.81 75.6968 166.996L77.24 166.145C94.2488 156.821 108.052 140.027 117.975 124.562C127.887 109.115 133.856 95.1088 135.232 91.4979C140.414 77.8962 144.47 67.6761 147.507 59.5769C150.541 51.4833 152.518 45.6099 153.541 40.7506C154.558 35.9189 154.625 32.111 153.842 28.15C153.053 24.1576 151.393 19.9651 148.871 14.3542L148.87 14.3538C147.87 12.1243 147.977 10.0844 148.831 8.35827C149.666 6.67386 151.164 5.38081 152.795 4.47299C154.432 3.5617 156.284 2.99252 157.944 2.80282C158.776 2.70785 159.584 2.70521 160.309 2.81542C161.025 2.92413 161.726 3.15272 162.279 3.57471L163.402 4.42936C166.752 6.96694 175.044 13.1506 184.959 19.5969C196.32 26.9828 209.701 34.6404 220.197 37.6128L221.779 38.07C238.249 42.9276 258.169 51.7228 274.255 59.4899ZM263.132 77.3229C255.803 69.3354 248.273 67.3882 241.066 68.9564C233.76 70.5463 226.618 75.7854 220.27 82.5362C213.939 89.2687 208.491 97.4031 204.561 104.601C202.596 108.198 201.018 111.549 199.9 114.358C198.772 117.194 198.144 119.403 198.024 120.743C198.015 120.844 198.043 121.078 198.258 121.474C198.467 121.86 198.812 122.324 199.309 122.852C200.303 123.908 201.811 125.127 203.754 126.387C207.632 128.903 213.12 131.506 219.353 133.268C231.84 136.799 247.028 136.885 258.298 126.552C259.699 124.829 265.485 117.629 268.673 108.335C271.908 98.9017 272.433 87.4582 263.132 77.3229Z" stroke="white" stroke-opacity="0.58" stroke-width="2"/>
<path d="M953.288 405.514C960.548 406.137 966.124 409.097 968.268 412.98C969.364 414.966 969.542 417.181 968.555 419.31C967.645 421.271 965.798 423.054 963.022 424.536L962.454 424.828C959.429 426.331 956.432 429.563 953.537 434.306C950.655 439.029 947.939 445.142 945.425 452.255C940.4 466.477 936.231 484.573 933.171 503.241C930.111 521.904 928.165 541.104 927.574 557.519C926.982 573.979 927.759 587.507 930.071 594.909C932.37 602.269 932.95 607.225 932.378 610.482C932.089 612.13 931.495 613.397 930.627 614.305C929.754 615.218 928.673 615.694 927.546 615.877C925.351 616.234 922.901 615.494 921.021 614.683C920.06 614.269 919.205 613.816 918.544 613.428C917.906 613.053 917.392 612.703 917.152 612.49L917.151 612.49C909.293 605.499 905.303 602.231 901.035 599.356C896.736 596.46 892.175 593.971 883.09 588.511L883.09 588.51C865.395 577.879 854.703 575.951 847.832 575.391C846.085 575.248 844.609 575.195 843.243 575.111C841.906 575.029 840.684 574.917 839.584 574.645C838.466 574.367 837.454 573.92 836.538 573.159C835.629 572.404 834.865 571.382 834.175 570.029L834.174 570.028C832.328 566.41 831.409 563.677 831.294 561.54C831.174 559.314 831.929 557.743 833.296 556.583C834.577 555.497 836.36 554.808 838.181 554.152C840.059 553.476 842.069 552.807 844.072 551.777C851.775 547.821 856.977 538.68 860.106 530.101C861.659 525.842 862.678 521.788 863.232 518.707C863.509 517.164 863.667 515.881 863.72 514.949C863.747 514.48 863.747 514.123 863.727 513.875C863.719 513.781 863.708 513.715 863.7 513.671C863.165 512.951 862.723 512.696 862.351 512.612C861.936 512.519 861.408 512.588 860.625 512.887C859.833 513.19 858.952 513.654 857.815 514.215C856.705 514.763 855.414 515.369 853.911 515.883C847.79 517.974 838.552 518.393 823.139 508.845C820.947 507.488 818.908 505.248 817.04 503.04C815.123 500.775 813.392 498.555 811.711 496.986C809.981 495.372 808.691 494.825 807.63 495.155C807.078 495.326 806.428 495.773 805.705 496.745C804.981 497.718 804.228 499.158 803.459 501.202L803.208 501.885C798.074 516.163 801.585 526.754 805.48 534.454C806.475 536.421 807.493 538.196 808.412 539.814C809.321 541.416 810.149 542.891 810.718 544.204C811.279 545.498 811.656 546.781 811.518 547.971C811.369 549.255 810.644 550.266 809.386 551.003C806.265 552.831 803.789 553.666 801.443 553.436C799.096 553.206 797.088 551.93 794.87 550.068C790.388 546.302 784.682 539.843 772.669 531.797C758.798 522.509 748.707 519.894 741.806 519.142C738.331 518.764 735.666 518.854 733.597 518.823C732.585 518.807 731.659 518.762 730.886 518.585C730.095 518.403 729.352 518.058 728.832 517.363C726.002 513.582 724.511 510.659 724.353 508.284C724.271 507.053 724.547 505.97 725.16 505.027C725.761 504.103 726.646 503.374 727.692 502.761C729.753 501.553 732.698 500.657 736.051 499.682C739.451 498.693 743.368 497.6 747.548 496.001C757.478 492.204 768.921 485.147 777.663 478.179C782.033 474.696 785.693 471.263 788.14 468.304C789.366 466.822 790.261 465.49 790.795 464.355C791.34 463.197 791.444 462.383 791.31 461.86L791.31 461.859C790.318 457.967 788.464 455.758 786.303 454.55C784.108 453.324 781.46 453.056 778.772 453.323C773.378 453.856 768.232 456.494 767.358 456.942C765.834 457.726 764.358 457.949 762.99 457.592C761.632 457.237 760.517 456.346 759.638 455.165C757.901 452.832 756.919 449.163 756.646 445.134C756.372 441.072 756.808 436.499 758.039 432.253C759.269 428.015 761.313 424.03 764.311 421.219C778.139 408.258 790.968 406.576 801.703 409.139C812.321 411.674 820.817 418.362 825.968 421.806C826.851 422.397 827.843 422.523 828.997 422.223C830.186 421.915 831.525 421.154 832.975 419.988C835.874 417.656 838.968 413.907 841.872 409.799C847.603 401.687 852.406 392.441 853.261 390.792C854.625 385.813 855.092 382.716 855.084 379.997C855.075 377.229 854.578 374.817 853.939 371.09C853.342 367.606 853.68 364.938 854.748 363.006C855.832 361.047 857.591 359.984 859.523 359.586C861.431 359.192 863.517 359.439 865.393 360.069C867.268 360.698 869.019 361.74 870.241 363.03C880.876 374.262 899.791 384.735 917.079 392.501C925.703 396.375 933.884 399.559 940.365 401.813C943.606 402.94 946.416 403.831 948.639 404.46C950.887 405.096 952.468 405.443 953.288 405.514ZM878.408 409.132C877.581 408.701 876.881 408.536 876.246 408.555C875.612 408.574 874.963 408.78 874.24 409.218C872.742 410.125 871.096 411.922 868.891 414.664C864.536 420.078 858.329 428.735 847.414 439.395C847.367 439.441 847.37 439.431 847.062 439.843C846.773 440.229 846.246 440.937 845.187 442.325C844.749 443.481 844.443 445.338 844.32 447.751C844.196 450.217 844.264 453.177 844.53 456.39C845.062 462.819 846.376 470.189 848.458 476.545C849.499 479.722 850.725 482.623 852.125 485.018C853.531 487.421 855.08 489.259 856.745 490.378C858.382 491.479 860.135 491.892 862.06 491.464C864.022 491.027 866.275 489.688 868.808 487.052C868.817 487.038 868.866 486.969 868.951 486.802C869.046 486.615 869.158 486.357 869.286 486.024C869.541 485.359 869.839 484.45 870.169 483.322C870.83 481.069 871.605 478.001 872.43 474.377C874.08 467.132 875.916 457.713 877.403 448.259C878.89 438.798 880.024 429.333 880.28 421.985C880.408 418.305 880.314 415.201 879.949 412.91C879.767 411.763 879.523 410.864 879.232 410.212C878.935 409.55 878.636 409.25 878.408 409.132Z" stroke="white" stroke-opacity="0.58" stroke-width="2"/>
<path d="M799.047 324.489C800.449 324.857 801.662 325.269 802.585 325.877C803.556 326.518 804.209 327.378 804.46 328.562L804.605 329.306C805.247 332.967 804.702 335.691 803.091 337.7C801.415 339.791 798.742 340.898 795.762 341.642C792.78 342.387 789.232 342.823 785.715 343.402C782.153 343.987 778.545 344.728 775.241 346.079C716.173 370.237 687.784 397 675.587 419.962C663.397 442.911 667.331 462.139 673.059 471.464C674.899 474.459 675.309 477.051 674.601 479.213C673.901 481.351 672.186 482.824 670.295 483.773C668.397 484.724 666.211 485.209 664.337 485.316C663.398 485.369 662.508 485.33 661.748 485.193C661.023 485.061 660.279 484.817 659.768 484.353C649.114 474.702 633.865 463.653 617.148 454.374C600.423 445.09 582.295 437.614 565.874 435.052L565.875 435.053C563.886 434.743 562.361 434.335 561.246 433.733C560.084 433.105 559.349 432.257 559.006 431.133C558.684 430.078 558.739 428.874 558.911 427.591C558.996 426.95 559.119 426.241 559.258 425.476L559.701 423.023C560.012 421.227 560.733 419.87 561.844 418.857C562.934 417.864 564.325 417.271 565.856 416.853C567.382 416.437 569.142 416.172 571.009 415.896C572.895 415.616 574.925 415.321 577.078 414.846C581.367 413.899 586.12 412.243 590.939 408.614C595.76 404.983 600.699 399.337 605.294 390.341C611.561 378.073 615.106 369.06 615.66 355.631C616.217 342.128 613.753 324.127 607.846 293.9C602.964 268.912 596.9 255.402 593.954 246.592C592.494 242.223 591.727 238.821 592.479 235.758C593.242 232.648 595.506 230.111 599.475 227.285C600.676 226.43 602.113 226.77 603.437 227.42C604.8 228.089 606.428 229.27 608.327 230.762C612.177 233.786 617.33 238.234 624.362 243.199C638.382 253.098 659.755 264.956 692.04 270.71C696.654 271.534 699.446 275.358 700.487 279.061C701.01 280.924 701.12 282.844 700.76 284.467C700.424 285.979 699.64 287.366 698.263 288.054L697.98 288.182C692.713 290.322 690.188 291.291 688.219 292.98C686.264 294.657 684.82 297.082 681.998 302.379C681.57 303.183 681.183 304.546 680.869 306.438C680.558 308.304 680.331 310.597 680.179 313.199C679.874 318.401 679.872 324.774 680.077 331.314C680.49 344.414 681.732 358.058 683.009 364.197C683.068 364.48 683.339 365.728 684.151 366.584C684.532 366.985 685.022 367.291 685.687 367.379C686.367 367.469 687.331 367.346 688.667 366.7C714.637 354.139 726.987 332.635 729.316 328.528C730.6 324 731.501 320.88 731.316 317.51C731.142 314.355 730.003 310.891 727.073 305.851L726.463 304.822C725.01 302.413 724.718 300.236 725.374 298.384C726.019 296.565 727.504 295.272 729.168 294.44C730.837 293.606 732.786 293.181 734.556 293.151C736.284 293.122 738.04 293.469 739.175 294.394L739.174 294.394C760.76 311.965 776.497 318.506 786.986 321.557C789.614 322.321 791.921 322.868 793.922 323.316C795.906 323.761 797.638 324.119 799.047 324.489Z" stroke="white" stroke-opacity="0.58" stroke-width="2"/>
<path d="M505.619 467.894C514.545 472.133 522.527 475.951 529.002 479.85C535.468 483.743 540.543 487.779 543.571 492.506C546.634 497.288 547.553 502.702 545.857 509.189C544.73 513.501 542.324 516.246 539.29 517.863C536.295 519.459 532.761 519.919 529.387 519.837C522.645 519.673 516.178 517.33 514.982 516.897C513.771 516.459 512.868 516.165 512.213 515.992C512.599 516.52 513.119 517.172 513.744 517.965C515.157 519.756 517 522.153 518.437 524.927C519.873 527.701 520.939 530.919 520.728 534.35L520.641 535.99C520.571 537.583 520.558 539.029 520.636 540.291C520.741 541.996 521.007 543.247 521.437 544.045C521.645 544.43 521.874 544.678 522.113 544.833C522.347 544.984 522.643 545.081 523.049 545.085C523.91 545.091 525.213 544.673 527.113 543.489L527.388 543.325C528.762 542.541 530.126 542.3 531.254 542.966C532.405 543.645 532.867 545.022 532.971 546.397C533.184 549.213 532.017 553.223 529.59 556.7C527.142 560.206 523.325 563.292 518.124 564.081C512.923 564.869 506.521 563.332 498.954 557.969C493.377 554.016 490.848 549.1 489.962 543.909C489.085 538.771 489.821 533.389 490.683 528.482C491.56 523.485 492.537 519.087 492.323 515.606C492.218 513.899 491.827 512.519 491.067 511.451C490.318 510.399 489.141 509.549 487.267 509.022L487.268 509.023C487.296 509.031 487.116 508.993 486.638 509.189C486.204 509.367 485.65 509.688 485.02 510.17C483.766 511.132 482.294 512.678 480.982 514.805C478.367 519.044 476.392 525.573 478.017 534.325C478.38 536.282 478.372 537.924 477.971 539.184C477.557 540.486 476.701 541.417 475.454 541.722C474.277 542.01 472.957 541.689 471.66 541.006C470.345 540.314 468.938 539.192 467.519 537.682C464.535 534.506 460.537 532.338 456.421 530.671C452.251 528.983 448.213 527.897 444.88 526.711C443.261 526.135 441.808 525.531 440.715 524.824C439.634 524.126 438.72 523.206 438.534 521.936C438.35 520.671 438.938 519.405 440.002 518.136C441.079 516.852 442.778 515.401 445.167 513.719C450.382 510.046 457.909 500.85 463.493 490.193C469.09 479.509 472.554 467.699 470.073 458.769L470.041 458.654L470.039 458.595C469.806 457.357 469.69 456.252 469.744 455.325C469.797 454.4 470.028 453.493 470.65 452.856C471.317 452.174 472.226 452.002 473.168 452.131C474.086 452.256 475.148 452.675 476.345 453.325L478.292 454.371C487.995 459.552 497.235 463.914 505.619 467.894ZM513.407 480.804C511.263 479.023 508.039 478.276 503.577 479.847L503.142 480.007C502.326 480.316 501.262 481.158 500.059 482.419C498.884 483.652 497.67 485.182 496.548 486.722C494.425 489.633 492.676 492.512 492.182 493.332C491.509 495.763 491.262 497.578 491.379 498.94C491.495 500.283 491.957 501.155 492.721 501.789C493.528 502.459 494.769 502.945 496.596 503.277C498.413 503.606 500.696 503.764 503.495 503.86C508.173 504.021 511.567 502.167 513.792 499.435C516.04 496.673 517.126 492.967 517.034 489.438C516.942 485.897 515.673 482.688 513.407 480.804Z" stroke="white" stroke-opacity="0.58" stroke-width="2"/>
<path d="M774.839 602.66C780.227 604.741 785.532 607.015 795.465 612.99C808.096 620.593 813.367 633.612 810.962 643.064C809.749 647.832 806.573 651.67 801.468 653.307C796.407 654.93 789.6 654.343 781.148 650.652C780.061 650.177 779.428 650.158 779.123 650.237C778.913 650.291 778.801 650.399 778.744 650.666C778.673 650.997 778.717 651.533 778.984 652.206C779.244 652.862 779.686 653.571 780.293 654.214L780.292 654.214C787.299 661.631 787.057 670.121 786.722 675.518C786.637 676.889 786.551 678.003 786.557 678.896C786.561 679.336 786.586 679.682 786.636 679.945C786.687 680.214 786.752 680.333 786.783 680.375C786.795 680.391 786.79 680.39 786.818 680.396C786.878 680.409 787.042 680.42 787.368 680.334C788.035 680.158 789.06 679.664 790.596 678.701C792.233 677.674 793.743 677.218 795.054 677.429C796.433 677.65 797.368 678.57 797.863 679.769C798.344 680.933 798.432 682.384 798.216 683.894C797.997 685.418 797.46 687.073 796.609 688.689C794.907 691.921 791.914 695.068 787.578 696.709C783.228 698.355 777.632 698.445 770.809 695.744L770.722 695.71L770.643 695.66C763.071 690.888 758.724 686.216 756.464 681.651C754.195 677.066 754.084 672.695 754.781 668.648C755.466 664.676 756.975 660.856 757.931 657.608C758.919 654.253 759.339 651.476 758.302 649.068L758.302 649.067C756.53 644.956 754.891 643.535 753.669 643.257C752.513 642.993 751.212 643.66 749.788 645.285C748.407 646.859 747.166 649.054 746.174 651.096C745.184 653.134 744.486 654.924 744.139 655.734C742.846 658.752 742.758 662.118 743.001 664.91C743.121 666.297 743.322 667.52 743.485 668.469C743.564 668.935 743.639 669.357 743.687 669.684C743.711 669.848 743.732 670.008 743.742 670.151C743.751 670.273 743.76 670.465 743.724 670.656L743.611 671.202C743.326 672.439 742.889 673.43 742.224 674.107C741.403 674.942 740.368 675.172 739.293 675.019C738.273 674.873 737.176 674.381 736.051 673.737C734.912 673.086 733.655 672.227 732.308 671.269C726.865 667.4 719.703 661.782 711.025 659.746C708.69 659.198 706.939 658.637 705.72 658.017C704.536 657.413 703.61 656.627 703.397 655.508C703.186 654.402 703.755 653.389 704.443 652.549C705.157 651.677 706.202 650.75 707.403 649.759C712.277 645.735 720.419 640.08 725.279 630.757C733.307 615.355 736.038 606.422 736.676 600.953C736.993 598.236 736.792 596.381 736.469 595.01C736.307 594.32 736.11 593.736 735.917 593.202C735.731 592.69 735.521 592.152 735.381 591.656C735.06 590.513 734.956 589.505 735.172 588.672C735.409 587.76 736.009 587.147 736.831 586.863C737.58 586.604 738.449 586.638 739.297 586.788C740.165 586.942 741.124 587.239 742.114 587.616C746.017 589.101 751.054 592.093 753.957 593.57L755.808 594.501C764.793 598.971 769.83 600.725 774.839 602.66ZM779.72 615.204C776.695 613.164 772.376 612.958 769.415 613.788L769.132 613.872C767.995 614.227 766.371 615.437 764.608 617.29C762.881 619.107 761.135 621.419 759.738 623.789C758.333 626.172 757.324 628.542 757.001 630.482C756.673 632.449 757.084 633.636 758.029 634.224C762.039 636.72 765.482 637.66 768.384 637.697C771.284 637.733 773.717 636.869 775.712 635.644C779.607 633.253 781.804 629.504 782.382 628.482C783.528 624.801 783.587 621.984 783.023 619.863C782.458 617.741 781.25 616.236 779.72 615.204Z" stroke="white" stroke-opacity="0.58" stroke-width="2"/>
<path d="M692.44 561.423C702.783 564.355 711.84 567.422 719.75 579.056C721.157 581.125 722.335 583.074 723.15 584.803C723.95 586.502 724.46 588.114 724.386 589.466C724.348 590.164 724.151 590.836 723.717 591.402C723.281 591.97 722.669 592.35 721.942 592.57C720.541 592.993 718.591 592.859 716.107 592.259C713.331 591.587 710.796 591.349 708.56 591.205C706.374 591.064 704.342 591.013 702.767 590.7C701.153 590.378 699.712 589.727 698.961 588.164C698.259 586.703 698.288 584.675 698.854 581.951L698.854 581.95C698.996 581.263 698.966 580.265 698.716 579.063C698.469 577.876 698.02 576.553 697.386 575.246C696.105 572.61 694.138 570.169 691.717 568.958C689.377 567.787 686.482 567.698 683.062 569.991C679.578 572.327 675.562 577.138 671.237 585.788L671.236 585.789C670.71 586.841 670.607 587.454 670.642 587.765C670.657 587.895 670.693 587.951 670.719 587.981C670.749 588.017 670.82 588.08 670.985 588.14C671.345 588.272 671.962 588.325 672.884 588.238C673.782 588.153 674.861 587.947 676.083 587.655L676.084 587.656C680.435 586.62 684.036 587.135 687.146 588.563C690.225 589.977 692.77 592.261 695.067 594.663C696.216 595.864 697.325 597.12 698.405 598.319C699.492 599.525 700.556 600.68 701.644 601.722C703.827 603.812 706.033 605.366 708.566 605.933L709.194 606.082C712.257 606.857 714.167 608.052 714.859 609.733C715.616 611.575 714.702 613.446 713.509 614.904C712.276 616.412 710.494 617.804 708.8 618.863C707.123 619.911 705.403 620.715 704.257 620.956C697.721 622.332 691.309 618.263 686.542 613.932C681.714 609.545 678.252 604.597 677.552 603.598C674.684 599.5 671.906 598.497 669.493 598.955C666.944 599.438 664.392 601.608 662.202 604.757C660.036 607.87 658.348 611.767 657.459 615.368C657.014 617.167 656.776 618.867 656.767 620.338C656.759 621.823 656.986 622.999 657.403 623.809L657.403 623.811C659.724 628.324 662.223 630.633 664.585 631.659C666.935 632.679 669.304 632.494 671.514 631.706C676.007 630.103 679.576 626.102 680.186 625.415C681.312 624.147 682.346 623.319 683.425 623.044C684.596 622.745 685.585 623.148 686.442 623.745C687.253 624.308 688.124 625.177 689.043 626.023C689.998 626.902 691.112 627.863 692.531 628.77C693.747 629.549 695.598 630.221 697.703 630.871C699.738 631.5 702.048 632.118 703.911 632.754C704.857 633.078 705.743 633.423 706.484 633.806C707.205 634.178 707.889 634.635 708.328 635.227C708.816 635.884 708.982 636.691 708.64 637.537C708.337 638.287 707.675 638.96 706.799 639.593C701.561 643.385 696.392 648.146 686.059 647.099C675.881 646.067 660.765 639.427 635.325 621.278C633.307 619.839 630.862 618.778 628.4 617.908C627.173 617.474 625.954 617.091 624.791 616.732C623.636 616.376 622.524 616.039 621.543 615.705C620.566 615.373 619.668 615.027 618.947 614.638C618.253 614.264 617.567 613.771 617.213 613.069C616.806 612.262 616.944 611.418 617.42 610.657C617.865 609.946 618.637 609.238 619.679 608.497C630.345 600.911 634.71 596.509 637.748 591.155C639.282 588.452 640.493 585.48 641.992 581.659C643.479 577.87 645.237 573.281 647.851 567.409C648.928 562.604 649.55 560.377 649.778 558.084C650.004 555.82 649.839 553.498 649.242 548.549C649.077 547.178 649.254 546.035 649.782 545.156C650.321 544.258 651.152 543.757 652.036 543.551C653.722 543.157 655.693 543.796 656.919 544.781L658.189 545.78C671.253 555.875 682.471 558.596 692.44 561.423Z" stroke="white" stroke-opacity="0.58" stroke-width="2"/>
<path d="M583.774 510.771C593.077 511.429 603.754 515.682 615.765 525.299C622.565 530.744 626.518 532.251 629.366 532.952C632.086 533.62 634.354 533.603 637.099 535.715L637.366 535.926L637.56 536.095C638.491 536.962 638.825 538.171 638.766 539.419C638.703 540.734 638.21 542.173 637.437 543.58C635.89 546.4 633.089 549.334 629.624 551.255C626.146 553.183 621.922 554.129 617.586 552.811C613.249 551.493 608.982 547.964 605.306 541.309L605.291 541.282C605.246 541.181 605.208 541.057 605.204 541.038L605.195 540.995C605.193 540.988 605.192 540.978 605.191 540.969C605.187 540.949 605.182 540.923 605.176 540.887C605.164 540.817 605.145 540.714 605.12 540.581C605.071 540.313 604.996 539.924 604.894 539.439C604.689 538.467 604.376 537.113 603.944 535.586C603.072 532.51 601.738 528.822 599.87 526.118C597.994 523.402 595.803 521.959 593.161 522.599C590.335 523.284 586.577 526.395 581.856 534.133C579.263 539.311 572.997 549.997 569.517 560.451C567.772 565.692 566.776 570.746 567.248 574.923C567.711 579.033 569.58 582.253 573.62 584.066C574.511 584.465 576.276 584.711 578.455 584.403C580.602 584.1 583.042 583.274 585.268 581.664C589.657 578.487 593.43 572.084 592.111 559.916C591.907 558.039 591.973 556.557 592.384 555.48C592.596 554.924 592.911 554.445 593.354 554.092C593.801 553.736 594.318 553.555 594.855 553.5C595.881 553.395 597.024 553.749 598.147 554.262C599.297 554.788 600.568 555.55 601.896 556.42C603.228 557.293 604.649 558.298 606.096 559.32C607.548 560.346 609.028 561.393 610.502 562.368C613.291 564.212 615.947 565.724 618.209 566.349L618.657 566.462C622.131 567.255 624.555 568.115 626.217 568.993C627.869 569.865 628.868 570.807 629.328 571.82C629.81 572.878 629.629 573.844 629.287 574.549C628.96 575.224 628.479 575.685 628.26 575.874C626.009 577.829 624.124 579.167 622.534 580.247C620.922 581.341 619.7 582.116 618.656 583.005C616.688 584.682 615.347 586.774 614.084 592.332C613.742 593.831 613.704 595.987 613.685 598.362C613.667 600.669 613.669 603.164 613.351 605.142C613.193 606.131 612.943 607.077 612.517 607.836C612.08 608.616 611.414 609.262 610.443 609.469C609.513 609.666 608.5 609.414 607.439 608.867C606.368 608.315 605.138 607.406 603.716 606.11C600.614 603.285 595.195 601.069 588.579 598.644C582.043 596.248 574.455 593.681 567.33 590.131C560.196 586.577 553.438 581.997 548.557 575.511C543.661 569.005 540.703 560.646 541.072 549.64L541.073 549.639C541.196 546.018 542.917 540.302 546.11 534.4C549.314 528.475 554.059 522.251 560.337 517.664C566.627 513.066 574.459 510.113 583.774 510.771Z" stroke="white" stroke-opacity="0.58" stroke-width="2"/>
<path d="M466.592 448.372C467.422 448.774 468.125 449.212 468.513 449.805C468.729 450.134 468.84 450.499 468.838 450.886C468.837 451.254 468.734 451.586 468.611 451.866C468.383 452.386 467.967 452.975 467.597 453.533C467.274 454.021 466.922 454.574 466.578 455.233L466.331 455.724L465.446 455.289L465.697 456.236C461.906 457.244 458.262 459.701 454.92 463.065C451.583 466.424 448.594 470.64 446.11 475.076C443.626 479.509 441.662 484.135 440.363 488.296C439.057 492.48 438.448 496.11 438.608 498.578C438.804 501.58 438.099 504.073 436.602 506.025C435.115 507.964 432.92 509.278 430.295 510.069C425.077 511.642 417.933 511.227 410.348 509.338C395.176 505.56 377.608 495.715 369.003 482.647C366.487 478.823 365.168 475.868 364.904 473.27C364.632 470.606 365.482 468.455 366.954 466.298C368.382 464.204 370.513 461.954 372.853 459.188C375.228 456.381 377.936 452.916 380.682 448.236C388.45 434.994 389.738 427.92 389.394 423.628C389.222 421.482 388.641 419.976 388.145 418.603C387.661 417.264 387.175 415.87 387.625 414.262L387.691 414.045C388.048 412.995 388.776 412.298 389.769 411.992C390.745 411.691 391.88 411.797 393.006 412.08C395.273 412.65 398.023 414.073 400.637 415.664C403.274 417.269 405.86 419.099 407.818 420.547C408.798 421.272 409.624 421.905 410.222 422.367C410.521 422.598 410.765 422.787 410.94 422.923C411.028 422.992 411.097 423.046 411.149 423.086C411.188 423.115 411.207 423.13 411.214 423.135L411.215 423.135C411.436 423.286 412.017 423.547 412.987 423.912C413.916 424.262 415.091 424.668 416.409 425.121C419.031 426.023 422.202 427.104 424.939 428.244C426.308 428.814 427.591 429.408 428.657 430.012C429.698 430.603 430.628 431.257 431.198 431.976C431.489 432.343 431.733 432.787 431.8 433.297C431.87 433.835 431.73 434.349 431.419 434.796C430.856 435.607 429.746 436.181 428.317 436.639C417.214 440.2 408.441 451.423 402.959 463.164C400.231 469.007 398.352 474.911 397.42 479.928C396.954 482.437 396.728 484.707 396.745 486.625C396.762 488.559 397.026 490.065 397.484 491.095C399.944 496.623 403.564 499.141 407.595 499.519C411.709 499.905 416.499 498.088 421.26 494.387C430.767 486.996 439.691 472.434 442.049 455.281C442.732 450.318 441.205 446.975 439.845 444.398C439.191 443.157 438.464 441.914 438.173 440.808C438.018 440.22 437.961 439.593 438.121 438.956C438.283 438.311 438.646 437.745 439.18 437.244C439.392 437.045 439.673 436.802 440.047 436.642C440.445 436.472 440.864 436.429 441.319 436.481C442.144 436.574 443.25 437.004 444.897 437.76C448.251 439.298 454.486 442.507 466.592 448.372Z" stroke="white" stroke-opacity="0.58" stroke-width="2"/>
<path d="M350.355 388.716C369.984 396.638 379.324 408.991 379.665 418.907C379.836 423.907 377.696 428.238 373.491 430.854C369.322 433.449 363.259 434.278 355.682 432.65C354.807 432.462 354.246 432.421 353.914 432.45C354.001 432.658 354.159 432.932 354.398 433.262C355.477 434.749 357.498 436.506 357.715 436.694L357.716 436.695C366.482 444.285 367.232 453.896 363.379 461.374C359.562 468.782 351.233 474.075 341.959 473.194C328.128 471.88 319.326 466.129 310.287 459.885C301.261 453.649 291.983 446.911 277.038 443.225C275.721 442.9 274.695 442.545 273.985 442.112C273.27 441.675 272.658 441.011 272.709 440.062C272.753 439.255 273.285 438.569 273.806 438.036C274.364 437.466 275.127 436.859 275.988 436.218C279.475 433.619 285.092 430.036 289.307 424.341C294.16 415.801 298.874 407.481 302.173 399.639C305.379 392.015 307.194 384.965 306.564 378.702L306.495 378.099C306.217 375.906 306.158 374.206 306.328 372.941C306.493 371.709 306.909 370.644 307.824 370.091C308.744 369.536 309.809 369.715 310.723 370.06C311.664 370.416 312.707 371.047 313.791 371.795C314.884 372.549 316.08 373.464 317.328 374.423C318.583 375.388 319.898 376.403 321.257 377.38C323.988 379.344 326.812 381.091 329.523 381.923L329.524 381.924C331.16 382.427 346.195 387.035 350.355 388.716ZM334.433 430.032C330.095 424.997 326.439 423.893 323.585 424.633C320.627 425.399 318.045 428.248 316.152 432.198C314.278 436.107 313.193 440.87 313.092 445.057C313.042 447.148 313.239 449.059 313.683 450.628C314.13 452.207 314.804 453.358 315.644 454.041C318.322 456.22 320.829 456.857 323.09 456.652C325.384 456.445 327.542 455.36 329.461 453.891C333.226 451.01 335.815 446.852 336.373 445.941C336.374 445.938 336.375 445.936 336.376 445.935C336.391 445.901 336.411 445.86 336.429 445.822C336.468 445.74 336.518 445.636 336.579 445.506C336.698 445.245 336.858 444.88 337.028 444.424C337.367 443.51 337.742 442.239 337.908 440.742C338.236 437.768 337.745 433.876 334.433 430.032ZM346.709 396.304C342.97 394.99 339.86 395.326 337.311 396.551C334.696 397.807 332.588 400.04 331.015 402.593C329.444 405.143 328.448 407.95 328.024 410.252C327.811 411.405 327.749 412.395 327.813 413.142C327.882 413.95 328.077 414.247 328.139 414.3L328.55 414.653C337.19 421.929 345.684 420.448 350.029 415.856C352.26 413.499 353.457 410.282 353.093 406.834C352.733 403.427 350.835 399.697 346.709 396.304Z" stroke="white" stroke-opacity="0.58" stroke-width="2"/>
</svg>
