<svg width="56" height="56" viewBox="0 0 56 56" fill="none" xmlns="http://www.w3.org/2000/svg">
<g clip-path="url(#clip0_7_486)">
<path d="M56.1094 20.5625C56.1094 22.0231 56.1094 23.4837 56.066 25.012C55.7555 26.5401 55.6174 28.0393 55.1922 29.4521C54.4815 31.8134 53.4053 34.0224 51.9601 36.048C50.77 37.716 49.3799 39.194 47.8097 40.4835C46.0495 41.9288 44.0964 43.0779 41.9741 43.9474C39.4345 44.9877 36.7897 45.4894 34.0698 45.5909C32.9986 45.6309 31.9074 45.5405 30.8473 45.3718C29.4234 45.1452 27.9778 44.9113 26.6203 44.4489C25.1027 43.932 23.6682 43.1667 22.2073 42.4884C21.3924 42.1102 21.4013 42.0912 20.7446 42.748C17.0722 46.4206 13.4025 50.0959 9.72292 53.7614C9.34487 54.138 8.91148 54.4599 8.49702 54.7989C7.70167 55.4495 6.76119 55.8049 5.79687 56.1094C5.17475 56.1094 4.55262 56.1094 3.86589 56.0684C2.57024 55.8509 1.73882 55.052 0.997876 54.1586C0.64133 53.7287 0.401861 53.2018 0.109375 52.7188C0.109375 51.8779 0.109375 51.0371 0.149357 50.1341C0.213777 50.045 0.252087 50.0218 0.260657 49.9905C0.651413 48.5618 1.52525 47.4332 2.54154 46.4115C6.21572 42.7179 9.90267 39.037 13.5934 35.3599C13.9694 34.9853 14.0885 34.6666 13.7967 34.1511C12.8455 32.4702 12.0622 30.7111 11.5204 28.85C10.9612 26.9287 10.6976 24.9618 10.6184 22.9698C10.5957 22.3981 10.6672 21.8206 10.722 21.2483C10.8206 20.2188 10.8465 19.1707 11.0686 18.1671C11.5432 16.0226 12.2686 13.9647 13.3315 12.0194C14.8607 9.22081 16.8674 6.8455 19.3583 4.87336C21.2348 3.38761 23.2991 2.21014 25.5649 1.44443C26.8405 1.01338 28.176 0.757224 29.4888 0.440233C30.0441 0.306157 30.6105 0.218261 31.1719 0.109375C32.6325 0.109375 34.0931 0.109375 35.6214 0.152711C37.042 0.451547 38.4136 0.634576 39.7438 0.977896C42.3744 1.65682 44.7576 2.88544 46.9464 4.4882C48.6218 5.71499 50.1136 7.14157 51.3713 8.79171C52.5356 10.3193 53.535 11.9499 54.2816 13.7343C54.97 15.3795 55.4929 17.0646 55.7836 18.8236C55.8797 19.4053 56.0001 19.983 56.1094 20.5625ZM42.3272 8.69413C41.5021 8.26733 40.6905 7.81152 39.8491 7.41988C38.1824 6.64416 36.3976 6.25665 34.5826 6.15299C33.3154 6.08062 32.0303 6.23795 30.7585 6.35174C29.163 6.4945 27.6747 7.04932 26.2414 7.72726C24.3362 8.62843 22.6634 9.85081 21.2194 11.4062C20.2681 12.4309 19.4478 13.535 18.7746 14.7501C17.2971 17.4171 16.5563 20.2719 16.7464 23.3276C16.818 24.4783 16.9704 25.6309 17.1841 26.7642C17.5433 28.6684 18.365 30.4128 19.4173 32.0123C20.4509 33.5833 21.7411 34.9597 23.2538 36.1065C24.5086 37.0577 25.8653 37.8258 27.3339 38.3907C29.5039 39.2255 31.7452 39.6554 34.0762 39.4783C35.0345 39.4055 36.0051 39.3456 36.9403 39.1425C40.8159 38.3007 43.9839 36.291 46.473 33.207C48.5824 30.5935 49.7459 27.5787 50.0724 24.2672C50.2791 22.1718 50.0329 20.0776 49.4278 18.0511C48.8817 16.2218 48.0536 14.5129 46.9105 12.9825C45.6594 11.3076 44.1759 9.86125 42.3272 8.69413Z" fill="white"/>
<path d="M39.3342 9.98039C40.2096 10.2996 41.0058 10.6014 41.4352 11.5106C42.1459 13.0152 41.0092 14.9119 39.3491 14.9016C38.4529 14.8961 37.7173 14.4746 36.8993 14.2826C33.7015 13.5321 30.8228 14.1577 28.2157 16.1331C26.8176 17.1925 25.883 18.5921 25.1443 20.1586C24.718 21.0627 23.9338 21.5467 22.9436 21.5314C21.9669 21.5164 21.219 21.0114 20.7862 20.1237C20.4873 19.5107 20.4947 18.875 20.7551 18.2306C21.6348 16.054 23.0193 14.2356 24.7705 12.7083C26.7035 11.0224 28.974 9.93209 31.4783 9.43723C33.2382 9.08946 35.0406 8.98597 36.8265 9.39826C37.6489 9.58812 38.473 9.77082 39.3342 9.98039Z" fill="white"/>
</g>
<defs>
<clipPath id="clip0_7_486">
<rect width="56" height="56" fill="white"/>
</clipPath>
</defs>
</svg>
