<svg width="138" height="152" viewBox="0 0 138 152" fill="none" xmlns="http://www.w3.org/2000/svg">
<g filter="url(#filter0_d_23_668)">
<path d="M130.444 54.8715C130.419 54.9357 130.415 55.0075 130.38 55.0677C130.36 55.1027 130.324 55.1235 130.3 55.1562C130.272 55.2012 130.265 55.2531 130.231 55.2944C130.175 55.3647 130.095 55.4039 130.027 55.4593C130.018 55.4655 130.013 55.472 130.005 55.477C129.758 55.6717 129.466 55.7809 129.151 55.7837L111.799 59.7877C111.022 59.967 110.206 59.4957 109.973 58.7333C109.74 57.9709 110.179 57.2099 110.956 57.0305L125.679 53.6332C106.867 40.1388 86.0397 37.4604 68.1247 46.404C67.4227 46.755 66.5256 46.4715 66.1202 45.7718C65.7148 45.0721 65.9546 44.2215 66.6559 43.8717C83.509 35.455 102.751 36.7092 120.724 47.0857C122.668 48.2079 124.594 49.4488 126.503 50.7836L122.369 37.2632C122.136 36.5008 122.575 35.7397 123.352 35.5604C123.739 35.471 124.138 35.5439 124.469 35.7348C124.799 35.9257 125.062 36.2346 125.178 36.6148L130.493 53.9959C130.571 54.2514 130.549 54.5069 130.482 54.7521C130.473 54.7938 130.457 54.8309 130.444 54.8715Z" fill="white"/>
<path d="M23.4337 70.2736C33.5044 59.2015 48.0954 52.621 60.6118 53.5082C63.5734 53.7265 66.6296 54.762 69.5613 56.4546C74.1642 59.1121 78.4598 63.3905 81.5956 68.6756C84.9826 74.3786 86.6338 80.547 86.2475 86.0448C85.8472 91.7369 83.3245 96.0527 79.1415 98.1976C70.6986 102.528 58.0558 96.3303 50.9647 84.3848C50.9591 84.3767 50.9601 84.366 50.9557 84.3587C47.9243 79.2447 46.2576 73.6341 46.263 68.5602C46.2639 67.7804 46.9209 67.1851 47.7314 67.2339C47.9814 67.2483 48.2183 67.324 48.4237 67.4426C48.8835 67.708 49.1975 68.196 49.1964 68.7349C49.1926 73.3168 50.7183 78.414 53.4932 83.0893C53.4963 83.0959 53.4961 83.1022 53.4992 83.1088C59.7702 93.6561 70.5944 99.2937 77.6466 95.6807C80.9716 93.9749 82.9864 90.4256 83.3193 85.6853C83.6655 80.752 82.1576 75.1705 79.0717 69.972C74.4466 62.1782 67.1828 56.8251 60.5691 56.3352C48.9062 55.5087 35.2149 61.7417 25.6883 72.2175C15.1165 83.8384 10.9977 98.6375 14.0909 113.89C14.248 114.665 13.7312 115.378 12.9363 115.484C12.1421 115.589 11.3702 115.047 11.2124 114.27C7.94517 98.1564 12.2845 82.5309 23.4337 70.2736Z" fill="white"/>
</g>
<defs>
<filter id="filter0_d_23_668" x="6.15186" y="31.5224" width="128.391" height="87.9745" filterUnits="userSpaceOnUse" color-interpolation-filters="sRGB">
<feFlood flood-opacity="0" result="BackgroundImageFix"/>
<feColorMatrix in="SourceAlpha" type="matrix" values="0 0 0 0 0 0 0 0 0 0 0 0 0 0 0 0 0 0 127 0" result="hardAlpha"/>
<feOffset/>
<feGaussianBlur stdDeviation="2"/>
<feComposite in2="hardAlpha" operator="out"/>
<feColorMatrix type="matrix" values="0 0 0 0 0 0 0 0 0 0 0 0 0 0 0 0 0 0 0.25 0"/>
<feBlend mode="normal" in2="BackgroundImageFix" result="effect1_dropShadow_23_668"/>
<feBlend mode="normal" in="SourceGraphic" in2="effect1_dropShadow_23_668" result="shape"/>
</filter>
</defs>
</svg>
